<svg width="240" height="262" viewBox="0 0 240 262" fill="none" xmlns="http://www.w3.org/2000/svg">
<g filter="url(#filter0_d_157_1073)">
<path d="M109.018 31.3266C115.816 27.4105 124.184 27.4105 130.982 31.3265L200.982 71.6526C207.799 75.5798 212 82.8483 212 90.7156V171.284C212 179.152 207.799 186.42 200.982 190.347L130.982 230.673C124.184 234.589 115.816 234.589 109.018 230.673L39.0181 190.347C32.2011 186.42 28 179.152 28 171.284V90.7156C28 82.8483 32.2011 75.5798 39.0181 71.6526L109.018 31.3266Z" fill="#304FFE"/>
<path d="M129.484 33.926L199.484 74.2521C205.372 77.6438 209 83.9211 209 90.7156V171.284C209 178.079 205.372 184.356 199.484 187.748L129.484 228.074C123.614 231.456 116.386 231.456 110.516 228.074L40.5156 187.748C34.6282 184.356 31 178.079 31 171.284V90.7156C31 83.9211 34.6282 77.6438 40.5156 74.2521L110.516 33.926C116.386 30.544 123.614 30.544 129.484 33.926Z" stroke="white" stroke-width="6"/>
</g>
<path d="M80.2847 142.27H76.2647V129.82H72.3647C72.3247 129.86 72.2947 129.9 72.2747 129.94C72.2747 129.98 72.2547 130.02 72.2147 130.06C70.8947 131.78 69.5647 133.44 68.2247 135.04C66.9047 136.64 65.5147 138.26 64.0547 139.9L61.1147 137.53C62.3547 136.09 63.5647 134.66 64.7447 133.24C65.9447 131.82 67.1347 130.34 68.3147 128.8C69.0347 127.84 69.3947 126.6 69.3947 125.08V121.36H62.3447V117.7H73.4747V125.53V125.86H76.2647V116.86H80.2847V142.27ZM86.5547 143.02H82.4747V116.56H86.5547V143.02ZM115.892 130.9H111.752V116.56H115.892V130.9ZM115.892 142.81H95.1923V131.92H115.892V142.81ZM111.752 139.21V135.52H99.3323V139.21H111.752ZM108.152 126.19C107.772 127.03 107.222 127.77 106.502 128.41C105.802 129.05 104.942 129.56 103.922 129.94C102.922 130.3 101.792 130.48 100.532 130.48C99.2723 130.48 98.1323 130.3 97.1123 129.94C96.1123 129.56 95.2523 129.05 94.5323 128.41C93.8323 127.77 93.2823 127.03 92.8823 126.19C92.5023 125.33 92.3123 124.42 92.3123 123.46C92.3123 122.5 92.5023 121.6 92.8823 120.76C93.2823 119.9 93.8323 119.15 94.5323 118.51C95.2523 117.87 96.1123 117.37 97.1123 117.01C98.1323 116.63 99.2723 116.44 100.532 116.44C101.792 116.44 102.922 116.63 103.922 117.01C104.942 117.37 105.802 117.87 106.502 118.51C107.222 119.15 107.772 119.9 108.152 120.76C108.552 121.6 108.752 122.5 108.752 123.46C108.752 124.42 108.552 125.33 108.152 126.19ZM103.502 125.95C104.242 125.31 104.612 124.48 104.612 123.46C104.612 122.44 104.242 121.62 103.502 121C102.782 120.36 101.792 120.04 100.532 120.04C99.2723 120.04 98.2723 120.36 97.5323 121C96.8123 121.62 96.4523 122.44 96.4523 123.46C96.4523 124.48 96.8123 125.31 97.5323 125.95C98.2723 126.57 99.2723 126.88 100.532 126.88C101.792 126.88 102.782 126.57 103.502 125.95ZM146.7 143.05H142.56V116.56H146.7V143.05ZM138.18 139.09C137.18 137.85 136.23 136.69 135.33 135.61C134.45 134.51 133.63 133.45 132.87 132.43C132.67 132.17 132.48 131.92 132.3 131.68C132.14 131.42 131.99 131.15 131.85 130.87C131.55 131.43 131.21 131.95 130.83 132.43C130.05 133.45 129.12 134.58 128.04 135.82C126.98 137.06 125.94 138.29 124.92 139.51L122.1 136.54C123.28 135.14 124.42 133.75 125.52 132.37C126.64 130.97 127.65 129.63 128.55 128.35C128.93 127.81 129.22 127.21 129.42 126.55C129.62 125.89 129.72 125.15 129.72 124.33V117.34H133.92V124.33C133.92 125.15 134.02 125.89 134.22 126.55C134.42 127.21 134.7 127.81 135.06 128.35C135.92 129.65 136.82 130.95 137.76 132.25C138.72 133.55 139.77 134.89 140.91 136.27L138.18 139.09ZM167.638 131.14C166.558 130.36 165.518 129.6 164.518 128.86C163.518 128.1 162.508 127.34 161.488 126.58C160.408 127.42 159.308 128.26 158.188 129.1C157.088 129.94 155.968 130.78 154.828 131.62L152.338 128.83C153.358 128.05 154.378 127.26 155.398 126.46C156.438 125.66 157.458 124.85 158.458 124.03C159.078 123.51 159.388 122.78 159.388 121.84V120.85H153.508V117.25H169.288V120.85H163.588V121.84C163.588 122.78 163.898 123.51 164.518 124.03C165.378 124.77 166.278 125.51 167.218 126.25C168.158 126.97 169.088 127.67 170.008 128.35L167.638 131.14ZM176.038 143.11H171.898V136.18H155.518V132.52H176.038V143.11ZM176.038 131.5H171.898V116.56H176.038V121.9H179.398V125.71H176.038V131.5Z" fill="white"/>
<defs>
<filter id="filter0_d_157_1073" x="0" y="0.389648" width="240" height="261.221" filterUnits="userSpaceOnUse" color-interpolation-filters="sRGB">
<feFlood flood-opacity="0" result="BackgroundImageFix"/>
<feColorMatrix in="SourceAlpha" type="matrix" values="0 0 0 0 0 0 0 0 0 0 0 0 0 0 0 0 0 0 127 0" result="hardAlpha"/>
<feOffset/>
<feGaussianBlur stdDeviation="14"/>
<feComposite in2="hardAlpha" operator="out"/>
<feColorMatrix type="matrix" values="0 0 0 0 0.34425 0 0 0 0 0.2375 0 0 0 0 1 0 0 0 0.6 0"/>
<feBlend mode="normal" in2="BackgroundImageFix" result="effect1_dropShadow_157_1073"/>
<feBlend mode="normal" in="SourceGraphic" in2="effect1_dropShadow_157_1073" result="shape"/>
</filter>
</defs>
</svg>
