<svg width="30" height="30" viewBox="0 0 30 30" fill="none" xmlns="http://www.w3.org/2000/svg">
<path d="M27.5 12.5V11.25C27.5 5 25 2.5 18.75 2.5H11.25C5 2.5 2.5 5 2.5 11.25V18.75C2.5 25 5 27.5 11.25 27.5H13.75M19.0875 27.5C19.3239 27.5 19.5579 27.4534 19.7763 27.363C19.9947 27.2725 20.1931 27.1399 20.3603 26.9728C20.5274 26.8056 20.66 26.6072 20.7505 26.3888C20.8409 26.1704 20.8875 25.9364 20.8875 25.7C20.8875 25.4636 20.8409 25.2296 20.7505 25.0112C20.66 24.7928 20.5274 24.5944 20.3603 24.4272C20.1931 24.2601 19.9947 24.1275 19.7763 24.037C19.5579 23.9466 19.3239 23.9 19.0875 23.9C18.6101 23.9 18.1523 24.0896 17.8147 24.4272C17.4771 24.7648 17.2875 25.2226 17.2875 25.7C17.2875 26.1774 17.4771 26.6352 17.8147 26.9728C18.1523 27.3104 18.6101 27.5 19.0875 27.5Z" stroke="white" stroke-width="1.5" stroke-linecap="round" stroke-linejoin="round"/>
<path d="M27.5 24.5V17.45C27.5 15.95 26.5625 15.7375 25.6 16L21.9875 16.9875C21.3375 17.1625 20.875 17.6875 20.875 18.4375V25.7125" stroke="white" stroke-width="1.5" stroke-linecap="round" stroke-linejoin="round"/>
<path d="M20.8875 20.5375L27.5 18.7375M25.7 26.3C26.1774 26.3 26.6352 26.1103 26.9728 25.7728C27.3104 25.4352 27.5 24.9774 27.5 24.5C27.5 24.0226 27.3104 23.5648 26.9728 23.2272C26.6352 22.8896 26.1774 22.7 25.7 22.7C25.2226 22.7 24.7648 22.8896 24.4272 23.2272C24.0897 23.5648 23.9 24.0226 23.9 24.5C23.9 24.9774 24.0897 25.4352 24.4272 25.7728C24.7648 26.1103 25.2226 26.3 25.7 26.3Z" stroke="white" stroke-width="1.5" stroke-linecap="round" stroke-linejoin="round"/>
</svg>
