<svg width="24" height="24" viewBox="0 0 24 24" fill="none" xmlns="http://www.w3.org/2000/svg">
<path d="M12.35 21H8.65C3.9 21 2 19.1 2 14.35V8.65C2 3.9 3.9 2 8.65 2H14.35C19.1 2 21 3.9 21 8.65V12.35" stroke="white" stroke-width="1.5" stroke-linecap="round" stroke-linejoin="round"/>
<path d="M6.72002 14.42C7.10458 14.42 7.4734 14.2672 7.74532 13.9953C8.01725 13.7234 8.17002 13.3546 8.17002 12.97C8.17002 12.5854 8.01725 12.2166 7.74532 11.9447C7.4734 11.6728 7.10458 11.52 6.72002 11.52C6.33546 11.52 5.96664 11.6728 5.69471 11.9447C5.42279 12.2166 5.27002 12.5854 5.27002 12.97C5.27002 13.3546 5.42279 13.7234 5.69471 13.9953C5.96664 14.2672 6.33546 14.42 6.72002 14.42Z" stroke="white" stroke-width="1.5" stroke-linecap="round" stroke-linejoin="round"/>
<path d="M13.48 12V6.34001C13.48 5.13001 12.72 4.97001 11.96 5.18001L9.06999 5.97001C8.54999 6.11001 8.17999 6.53001 8.17999 7.13001V12.97" stroke="white" stroke-width="1.5" stroke-linecap="round" stroke-linejoin="round"/>
<path d="M8.16998 8.83L13.48 7.38M21.74 21.88L20.74 20.88M12.03 13.45C12.4145 13.45 12.7834 13.2972 13.0553 13.0253C13.3272 12.7534 13.48 12.3846 13.48 12C13.48 11.6154 13.3272 11.2466 13.0553 10.9747C12.7834 10.7028 12.4145 10.55 12.03 10.55C11.6454 10.55 11.2766 10.7028 11.0047 10.9747C10.7328 11.2466 10.58 11.6154 10.58 12C10.58 12.3846 10.7328 12.7534 11.0047 13.0253C11.2766 13.2972 11.6454 13.45 12.03 13.45ZM17.94 21.28C18.7887 21.28 19.6026 20.9429 20.2027 20.3427C20.8028 19.7426 21.14 18.9287 21.14 18.08C21.14 17.2313 20.8028 16.4174 20.2027 15.8173C19.6026 15.2171 18.7887 14.88 17.94 14.88C17.0913 14.88 16.2774 15.2171 15.6772 15.8173C15.0771 16.4174 14.74 17.2313 14.74 18.08C14.74 18.9287 15.0771 19.7426 15.6772 20.3427C16.2774 20.9429 17.0913 21.28 17.94 21.28Z" stroke="white" stroke-width="1.5" stroke-linecap="round" stroke-linejoin="round"/>
</svg>
