<svg width="17" height="17" viewBox="0 0 17 17" fill="none" xmlns="http://www.w3.org/2000/svg">
<path d="M4.25 6.37501V1.41667M12.75 6.37501V1.41667M8.5 2.83334V1.41667M9.42084 5.74459L10.3558 7.61459C10.4833 7.86959 10.8233 8.12459 11.1067 8.16709L12.7996 8.45042C13.8833 8.63459 14.1383 9.41376 13.3592 10.1929L12.0417 11.5104C11.8221 11.73 11.6946 12.1621 11.7654 12.4738L12.1408 14.11C12.4383 15.3992 11.7513 15.9021 10.6108 15.2292L9.02417 14.2871C8.73375 14.1171 8.26625 14.1171 7.97584 14.2871L6.38917 15.2292C5.24875 15.9021 4.56167 15.3992 4.85917 14.11L5.23458 12.4738C5.30542 12.1692 5.17792 11.7371 4.95834 11.5104L3.64083 10.1929C2.86167 9.41376 3.11667 8.62751 4.20042 8.45042L5.89333 8.16709C6.17667 8.11751 6.51667 7.86959 6.64417 7.61459L7.57917 5.74459C8.08208 4.73167 8.91792 4.73167 9.42084 5.74459Z" stroke="#A096B9" stroke-width="1.5" stroke-linecap="round" stroke-linejoin="round"/>
</svg>
