<svg width="30" height="30" viewBox="0 0 30 30" fill="none" xmlns="http://www.w3.org/2000/svg">
<path d="M18.75 26.25H11.25V15.75C11.25 15.3358 11.5858 15 12 15H18C18.4142 15 18.75 15.3358 18.75 15.75V26.25Z" fill="#304FFE" stroke="white" stroke-width="1.5" stroke-linecap="round" stroke-linejoin="bevel"/>
<path d="M25.5 26.25H18.75V22.625C18.75 22.2108 19.0858 21.875 19.5 21.875H25.5C25.9142 21.875 26.25 22.2108 26.25 22.625V25.5C26.25 25.9142 25.9142 26.25 25.5 26.25Z" fill="#304FFE" stroke="white" stroke-width="1.5" stroke-linecap="round" stroke-linejoin="bevel"/>
<path d="M11.25 26.25V20.125C11.25 19.7108 10.9142 19.375 10.5 19.375H4.5C4.08579 19.375 3.75 19.7108 3.75 20.125V25.5C3.75 25.9142 4.08579 26.25 4.5 26.25H11.25Z" fill="#304FFE" stroke="white" stroke-width="1.5" stroke-linecap="round" stroke-linejoin="bevel"/>
<path d="M13.2937 5.51892L14.5924 2.76515C14.7591 2.41162 15.2409 2.41162 15.4076 2.76515L16.7063 5.51892L19.6107 5.96324C19.9834 6.02025 20.1319 6.49966 19.8622 6.77469L17.7609 8.9167L18.2567 11.9428C18.3204 12.3314 17.9307 12.6278 17.5973 12.4443L15 11.0147L12.4027 12.4443C12.0693 12.6278 11.6795 12.3314 11.7432 11.9428L12.2391 8.9167L10.1379 6.77469C9.86809 6.49966 10.0166 6.02025 10.3893 5.96324L13.2937 5.51892Z" fill="#304FFE" stroke="white" stroke-width="1.5" stroke-linecap="round" stroke-linejoin="round"/>
</svg>
