<svg width="30" height="30" viewBox="0 0 30 30" fill="none" xmlns="http://www.w3.org/2000/svg">
<path d="M26.35 10.725V19.275C26.35 20.675 25.6 21.975 24.3875 22.6875L16.9625 26.975C15.75 27.675 14.25 27.675 13.025 26.975L5.60002 22.6875C5.00223 22.3409 4.50618 21.8431 4.1617 21.2441C3.81722 20.6451 3.63644 19.966 3.63752 19.275V10.725C3.63752 9.325 4.38752 8.025 5.60002 7.3125L13.025 3.025C14.2375 2.325 15.7375 2.325 16.9625 3.025L24.3875 7.3125C25.6 8.025 26.35 9.3125 26.35 10.725Z" stroke="white" stroke-width="1.5" stroke-linecap="round" stroke-linejoin="round"/>
<path d="M20 20.825C20 18.575 17.7625 16.75 15 16.75C12.2375 16.75 10 18.575 10 20.825M15 13.75C15.7724 13.75 16.5132 13.4431 17.0594 12.8969C17.6056 12.3507 17.9125 11.6099 17.9125 10.8375C17.9125 10.065 17.6056 9.32424 17.0594 8.77804C16.5132 8.23184 15.7724 7.92499 15 7.92499C14.2276 7.92499 13.4868 8.23184 12.9406 8.77804C12.3944 9.32424 12.0875 10.065 12.0875 10.8375C12.0875 11.6099 12.3944 12.3507 12.9406 12.8969C13.4868 13.4431 14.2276 13.75 15 13.75Z" stroke="white" stroke-width="1.5" stroke-linecap="round" stroke-linejoin="round"/>
</svg>
